<svg xmlns="http://www.w3.org/2000/svg" xmlns:xlink="http://www.w3.org/1999/xlink" width="30" height="30.5" viewBox="0 0 30 30.5"><defs><style>.a{fill:#5b92ff;}.b{fill:#fff;}.c{filter:url(#c);}.d{filter:url(#a);}</style><filter id="a" x="0.5" y="1.5" width="29" height="29" filterUnits="userSpaceOnUse"><feOffset dy="1" input="SourceAlpha"/><feGaussianBlur stdDeviation="0.5" result="b"/><feFlood flood-opacity="0.2"/><feComposite operator="in" in2="b"/><feComposite in="SourceGraphic"/></filter><filter id="c" x="0.5" y="1.5" width="29" height="29" filterUnits="userSpaceOnUse"><feOffset dy="1" input="SourceAlpha"/><feGaussianBlur stdDeviation="1.5" result="d"/><feFlood flood-opacity="0.2"/><feComposite operator="in" in2="d"/><feComposite in="SourceGraphic"/></filter></defs><g transform="translate(-15 -24)"><rect class="a" width="30" height="30" rx="4" transform="translate(15 24)"/><g class="d" transform="matrix(1, 0, 0, 1, 15, 24)"><path class="a" d="M4,0H22a4,4,0,0,1,4,4V22a4,4,0,0,1-4,4H4a4,4,0,0,1-4-4V4A4,4,0,0,1,4,0Z" transform="translate(2 2)"/></g><g class="c" transform="matrix(1, 0, 0, 1, 15, 24)"><path class="b" d="M10,20a9.913,9.913,0,0,1-4.243-.942l1.093-3.28h5.963l1.145,3.4h.016A9.934,9.934,0,0,1,10,20Zm6.862-2.725h0L11.4,2.672H8.244L2.9,17.039A10,10,0,1,1,20,10a9.908,9.908,0,0,1-3.137,7.274Zm-4.967-4.252H7.768L9.82,6.845l2.074,6.177Z" transform="translate(5 5)"/></g></g></svg>